# xmcd
#
# Track frame offsets: 
#        150
#        23080
#        35321
#        43735
#        58355
#        64985
#        79710
#        94943
#        105686
#        118809
#
# Disc length: 1717 seconds
#
# Revision: 0
# Processed by: cddbd v1.5.1PL2 Copyright (c) Steve Scherf et al.
# Submitted via: ExactAudioCopy v0.95b3
#
DISCID=8806b30a
DTITLE=Prater, Rick - Sings Larry Sparks Early Years
DYEAR=2002
DGENRE=Bluegrass
TTITLE0=Sparks Then And Now
TTITLE1=Lust Lovin' You
TTITLE2=Goodbye Little Darlin'
TTITLE3=Old Faded Picture
TTITLE4=Around The Carousel
TTITLE5=These Blues Have Got Me
TTITLE6=Please Mommy Please
TTITLE7=Lovin' Sweethearts
TTITLE8=The Old Plantation
TTITLE9=Spinning Wheel
EXTD=
EXTT0=
EXTT1=
EXTT2=
EXTT3=
EXTT4=
EXTT5=
EXTT6=
EXTT7=
EXTT8=
EXTT9=
PLAYORDER=
